<svg width="108" height="108" viewBox="0 0 108 108" fill="none" xmlns="http://www.w3.org/2000/svg">
<g filter="url(#filter0_dd_92_34)">
<rect x="4" width="100" height="100" rx="16" fill="#F2785C"/>
<path d="M41.7222 52.8889C42.6799 52.8889 43.5984 52.5084 44.2757 51.8312C44.9529 51.154 45.3333 50.2355 45.3333 49.2778C45.3333 48.3201 44.9529 47.4016 44.2757 46.7243C43.5984 46.0471 42.6799 45.6667 41.7222 45.6667C40.7645 45.6667 39.846 46.0471 39.1688 46.7243C38.4916 47.4016 38.1111 48.3201 38.1111 49.2778C38.1111 50.2355 38.4916 51.154 39.1688 51.8312C39.846 52.5084 40.7645 52.8889 41.7222 52.8889ZM57.6111 49.2778C57.6111 50.2355 57.2307 51.154 56.5534 51.8312C55.8762 52.5084 54.9577 52.8889 54 52.8889C53.0423 52.8889 52.1238 52.5084 51.4466 51.8312C50.7693 51.154 50.3889 50.2355 50.3889 49.2778C50.3889 48.3201 50.7693 47.4016 51.4466 46.7243C52.1238 46.0471 53.0423 45.6667 54 45.6667C54.9577 45.6667 55.8762 46.0471 56.5534 46.7243C57.2307 47.4016 57.6111 48.3201 57.6111 49.2778ZM66.2778 52.8889C67.2355 52.8889 68.154 52.5084 68.8312 51.8312C69.5084 51.154 69.8889 50.2355 69.8889 49.2778C69.8889 48.3201 69.5084 47.4016 68.8312 46.7243C68.154 46.0471 67.2355 45.6667 66.2778 45.6667C65.32 45.6667 64.4016 46.0471 63.7243 46.7243C63.0471 47.4016 62.6667 48.3201 62.6667 49.2778C62.6667 50.2355 63.0471 51.154 63.7243 51.8312C64.4016 52.5084 65.32 52.8889 66.2778 52.8889ZM45.3333 60.8333C45.3333 61.7911 44.9529 62.7096 44.2757 63.3868C43.5984 64.064 42.6799 64.4444 41.7222 64.4444C40.7645 64.4444 39.846 64.064 39.1688 63.3868C38.4916 62.7096 38.1111 61.7911 38.1111 60.8333C38.1111 59.8756 38.4916 58.9571 39.1688 58.2799C39.846 57.6027 40.7645 57.2222 41.7222 57.2222C42.6799 57.2222 43.5984 57.6027 44.2757 58.2799C44.9529 58.9571 45.3333 59.8756 45.3333 60.8333ZM54 64.4444C54.9577 64.4444 55.8762 64.064 56.5534 63.3868C57.2307 62.7096 57.6111 61.7911 57.6111 60.8333C57.6111 59.8756 57.2307 58.9571 56.5534 58.2799C55.8762 57.6027 54.9577 57.2222 54 57.2222C53.0423 57.2222 52.1238 57.6027 51.4466 58.2799C50.7693 58.9571 50.3889 59.8756 50.3889 60.8333C50.3889 61.7911 50.7693 62.7096 51.4466 63.3868C52.1238 64.064 53.0423 64.4444 54 64.4444ZM28 33.0278C28 30.6335 28.9511 28.3372 30.6442 26.6442C32.3372 24.9511 34.6335 24 37.0278 24H70.9722C73.3665 24 75.6628 24.9511 77.3558 26.6442C79.0489 28.3372 80 30.6335 80 33.0278V66.9722C80 69.3665 79.0489 71.6628 77.3558 73.3558C75.6628 75.0489 73.3665 76 70.9722 76H37.0278C34.6335 76 32.3372 75.0489 30.6442 73.3558C28.9511 71.6628 28 69.3665 28 66.9722V33.0278ZM37.0278 27.6111C35.5912 27.6111 34.2134 28.1818 33.1976 29.1976C32.1818 30.2134 31.6111 31.5912 31.6111 33.0278V35.5556H76.3889V33.0278C76.3889 31.5912 75.8182 30.2134 74.8024 29.1976C73.7866 28.1818 72.4088 27.6111 70.9722 27.6111H37.0278ZM31.6111 66.9722C31.6111 68.4088 32.1818 69.7866 33.1976 70.8024C34.2134 71.8182 35.5912 72.3889 37.0278 72.3889H70.9722C72.4088 72.3889 73.7866 71.8182 74.8024 70.8024C75.8182 69.7866 76.3889 68.4088 76.3889 66.9722V39.1667H31.6111V66.9722Z" fill="white"/>
</g>
<defs>
<filter id="filter0_dd_92_34" x="0" y="0" width="108" height="108" filterUnits="userSpaceOnUse" color-interpolation-filters="sRGB">
<feFlood flood-opacity="0" result="BackgroundImageFix"/>
<feColorMatrix in="SourceAlpha" type="matrix" values="0 0 0 0 0 0 0 0 0 0 0 0 0 0 0 0 0 0 127 0" result="hardAlpha"/>
<feOffset dy="4"/>
<feGaussianBlur stdDeviation="2"/>
<feComposite in2="hardAlpha" operator="out"/>
<feColorMatrix type="matrix" values="0 0 0 0 0 0 0 0 0 0 0 0 0 0 0 0 0 0 0.25 0"/>
<feBlend mode="normal" in2="BackgroundImageFix" result="effect1_dropShadow_92_34"/>
<feColorMatrix in="SourceAlpha" type="matrix" values="0 0 0 0 0 0 0 0 0 0 0 0 0 0 0 0 0 0 127 0" result="hardAlpha"/>
<feOffset dy="4"/>
<feGaussianBlur stdDeviation="2"/>
<feComposite in2="hardAlpha" operator="out"/>
<feColorMatrix type="matrix" values="0 0 0 0 0 0 0 0 0 0 0 0 0 0 0 0 0 0 0.25 0"/>
<feBlend mode="normal" in2="effect1_dropShadow_92_34" result="effect2_dropShadow_92_34"/>
<feBlend mode="normal" in="SourceGraphic" in2="effect2_dropShadow_92_34" result="shape"/>
</filter>
</defs>
</svg>
